<svg width="28" height="28" viewBox="0 0 28 28" fill="none" xmlns="http://www.w3.org/2000/svg">
<path fill-rule="evenodd" clip-rule="evenodd" d="M11.5366 27.7592C13.3659 27.7592 15.1965 27.7592 17.0268 27.7592C15.4073 26.3003 15.1533 24.6881 15.0338 23.1724C14.7917 20.0744 16.5154 18.1527 18.4447 16.0565C15.3854 18.4397 14.9544 19.3278 14.2814 19.3278C13.6084 19.3278 13.1785 18.4397 10.1182 16.0565C12.0475 18.1527 13.7709 20.0747 13.5291 23.1724C13.4096 24.6883 13.1556 26.3003 11.5369 27.7592H11.5366Z" fill="white"/>
<path d="M7.44954 11.3726C8.51032 9.46429 5.23281 7.96122 6.90315 6.1411C7.99948 6.84888 8.78461 7.92631 8.58416 9.34018C8.96783 7.77239 8.30549 6.75604 7.34781 5.90185C10.3628 5.49464 11.0158 9.79249 7.44926 11.3726H7.44954Z" fill="#6B9E4D"/>
<path d="M26.3293 13.91C24.9784 14.6893 23.5851 12.8716 22.3493 14.0041C22.9712 14.5965 23.8432 14.9746 24.8912 14.7434C23.741 15.0958 22.9249 14.7836 22.2052 14.287C22.1363 16.1017 25.4258 16.1456 26.3293 13.9098V13.91Z" fill="#6B9E4D"/>
<path d="M10.248 9.17267C10.6043 10.9307 7.5636 11.4718 8.43651 13.2829C9.50686 12.938 10.4227 12.2307 10.6314 11.0461C10.5307 12.3909 9.72919 13.0752 8.73404 13.568C11.0571 14.5186 12.7146 11.1814 10.2482 9.17267H10.248Z" fill="#94C957"/>
<path d="M19.7872 9.21545C18.1117 9.69684 18.8962 11.9969 16.9595 12.1501C16.8182 11.276 17.0558 10.3578 18.0006 9.7269C16.8718 10.3503 16.609 11.1825 16.5906 12.065C14.8046 10.8666 17.0219 8.35957 19.7872 9.21545Z" fill="#94C957"/>
<path d="M5.83446 7.92978C5.52462 8.74131 6.92259 9.18852 6.36335 9.99084C5.88588 9.76008 5.50712 9.36862 5.50302 8.79488C5.44423 9.43673 5.76856 9.81171 6.20146 10.1086C5.02445 10.4124 4.50705 8.7287 5.83446 7.92978Z" fill="#94C957"/>
<path d="M23.1086 19.7427C22.886 17.9206 19.7215 18.1703 19.9864 16.1652C21.1531 16.2309 22.2855 16.6915 22.8751 17.8024C22.3372 16.5036 21.3245 16.0402 20.1874 15.8106C22.1624 14.2809 24.8766 17.1363 23.1084 19.7427H23.1086Z" fill="#94C957"/>
<path d="M15.6676 8.35625C14.629 8.53101 14.2926 7.12126 13.2266 7.536C13.4364 8.0312 13.8603 8.45296 14.5623 8.54289C13.7643 8.50386 13.3571 8.13567 13.0598 7.6744C12.5096 8.76153 14.4914 9.51149 15.6676 8.35625Z" fill="#6B9E4D"/>
<path d="M12.194 8.06308C11.8459 8.91 13.3035 9.40981 12.6944 10.2432C12.1956 9.9901 11.8098 9.56858 11.8224 8.96429C11.7395 9.64081 12.0726 10.0408 12.5189 10.3617C11.2716 10.6564 10.7742 8.87364 12.194 8.06308Z" fill="#94C957"/>
<path d="M24.7121 4.71521C25.9049 6.65556 22.5779 8.34163 24.4017 10.1622C25.5046 9.38586 26.2665 8.24007 25.9892 6.77966C26.4642 8.39205 25.824 9.47239 24.8748 10.3945C28.0216 10.703 28.4895 6.21683 24.7121 4.71497V4.71521Z" fill="#94C957"/>
<path d="M6.23904 20.6081C7.68022 19.5331 9.58875 21.4648 10.8393 19.9959C10.0258 19.3882 8.95403 19.0607 7.77292 19.4607C9.05057 18.9087 10.0474 19.1637 10.9613 19.6495C10.7477 17.5392 6.92764 17.9028 6.23877 20.6081H6.23904Z" fill="#6B9E4D"/>
<path d="M13.726 1.41449C13.8925 3.00773 16.6595 2.82788 16.3986 4.57674C15.3818 4.50571 14.4014 4.0905 13.9023 3.11245C14.3514 4.2529 15.2284 4.67054 16.22 4.88409C14.4717 6.19713 12.1418 3.67358 13.726 1.41473V1.41449Z" fill="#6B9E4D"/>
<path d="M16.8702 2.32404C15.8086 2.10104 16.1657 0.648139 14.9633 0.640625C14.9258 1.18334 15.1221 1.73963 15.7385 2.08722C15.01 1.75223 14.8005 1.25097 14.7409 0.70801C13.7059 1.52342 15.2116 2.97316 16.8702 2.32404Z" fill="#94C957"/>
<path d="M20.2582 21.1963C18.9302 19.9816 20.9949 18.1363 19.2305 17.1207C18.5952 17.8937 18.2977 18.8776 18.8394 19.9034C18.1178 18.8022 18.3412 17.8891 18.8277 17.0359C16.4373 17.3796 17.1234 20.7723 20.2579 21.1963H20.2582Z" fill="#94C957"/>
<path d="M21.3694 5.47512C22.5497 5.30157 22.8872 6.90524 24.1087 6.46142C23.8861 5.89616 23.4199 5.40628 22.6274 5.28848C23.5287 5.35005 23.9816 5.77981 24.3024 6.30798C24.9584 5.0919 22.7368 4.19457 21.3691 5.47512H21.3694Z" fill="#6B9E4D"/>
<path d="M7.15858 5.14806C5.93727 5.2981 6.16152 6.96649 4.80676 6.86177C4.82918 6.2444 5.12015 5.63939 5.85551 5.3078C4.99408 5.61418 4.69819 6.15666 4.56446 6.76215C3.50094 5.74532 5.37283 4.26018 7.15858 5.14782V5.14806Z" fill="#94C957"/>
<path d="M21.4505 2.13379C19.6333 2.2002 19.6921 4.6789 17.7212 4.35482C17.8541 3.45215 18.377 2.59578 19.5121 2.20335C18.1973 2.54512 17.6739 3.30527 17.3796 4.18006C15.9795 2.54973 18.9682 0.60405 21.4502 2.13379H21.4505Z" fill="#6B9E4D"/>
<path d="M11.0423 14.5162C9.73242 15.0614 8.74492 13.2953 7.4908 14.1657C7.96007 14.7596 8.68203 15.1923 9.64737 15.1004C8.57565 15.2885 7.89252 14.922 7.32344 14.4006C7.01196 16.0077 9.92795 16.4033 11.0423 14.5162Z" fill="#6B9E4D"/>
<path d="M20.4299 8.37967C20.9331 9.63647 18.7708 10.3612 19.6609 11.6001C20.4017 11.23 20.9782 10.6106 20.9683 9.71695C21.078 10.7185 20.583 11.3073 19.9174 11.7758C21.7595 12.2242 22.52 9.59357 20.4299 8.37967Z" fill="#6B9E4D"/>
<path d="M14.8569 6.07784C13.1294 5.66529 12.3582 8.0068 10.6143 7.18436C11.0434 6.37041 11.8189 5.70577 13.0175 5.63402C11.666 5.60809 10.9222 6.18789 10.3553 6.92961C9.58331 5.03386 13.0389 3.99182 14.8569 6.07784Z" fill="#94C957"/>
<path d="M20.7625 3.46622C19.7026 5.64532 15.8932 4.26902 15.3618 6.83983C16.8312 7.15276 18.4299 6.96442 19.6389 5.78809C18.4151 7.21287 16.9638 7.44896 15.4542 7.3491C17.243 9.90948 21.8302 7.28898 20.7625 3.46622Z" fill="#94C957"/>
<path d="M22.1423 9.06705C22.3766 7.96586 20.4741 7.61367 21.0293 6.48146C21.7014 6.70228 22.2716 7.15118 22.3947 7.89339C22.3394 7.0489 21.8387 6.61744 21.2177 6.30451C22.6832 5.71816 23.7008 7.81801 22.1423 9.06705Z" fill="#94C957"/>
<path d="M7.70021 17.556C5.98256 16.8943 7.07725 14.5348 5.04894 14.1998C4.79981 15.1098 4.94475 16.1009 5.86989 16.8528C4.74867 16.0917 4.56627 15.1907 4.64722 14.2561C2.62438 15.3594 4.68003 18.2104 7.70021 17.556Z" fill="#6B9E4D"/>
<path d="M4.22213 9.36639C4.42012 11.2551 7.70174 11.0423 7.39135 13.1145C6.18618 13.0292 5.02394 12.5393 4.43024 11.379C4.96405 12.7303 6.0035 13.2265 7.18051 13.4795C5.10653 15.0364 2.34505 12.0434 4.22213 9.36639Z" fill="#94C957"/>
<path d="M8.7817 5.26636C9.6423 3.88521 12.0625 5.01185 12.602 3.34249C11.6506 3.05114 10.58 3.0858 9.69508 3.79383C10.6074 2.92073 11.5839 2.84753 12.5761 3.00024C11.5782 1.20363 8.3529 2.67543 8.7817 5.26636Z" fill="#6B9E4D"/>
<path d="M3.51137 5.35706C2.79871 6.59762 4.92438 7.60524 3.81574 8.77963C3.10719 8.30939 2.604 7.59918 2.74949 6.67664C2.48204 7.69735 2.90591 8.36659 3.52313 8.93379C1.5506 9.17667 1.16447 6.36225 3.51137 5.35706Z" fill="#6B9E4D"/>
<path d="M2.46806 16.7197C1.85659 15.2186 4.43949 14.3406 3.36531 12.8618C2.48201 13.3078 1.79752 14.0524 1.81393 15.1211C1.67419 13.9251 2.26433 13.2171 3.05547 12.6497C0.851048 12.1249 -0.042098 15.2806 2.46806 16.7194V16.7197Z" fill="#94C957"/>
<path d="M4.80281 19.9499C5.15175 19.0315 6.75373 19.4784 6.87405 18.4158C6.26367 18.3324 5.62048 18.456 5.1739 18.9692C5.61692 18.3552 6.19996 18.2163 6.81772 18.2131C5.99212 17.2235 4.22415 18.424 4.80254 19.9499H4.80281Z" fill="#94C957"/>
<path d="M4.6433 18.306C3.80759 17.938 4.42043 16.7881 3.41899 16.5758C3.26776 17.0232 3.31233 17.5206 3.75125 17.9145C3.21498 17.5116 3.15017 17.0576 3.21744 16.5935C2.17772 17.0989 3.12036 18.5636 4.6433 18.3057V18.306Z" fill="#94C957"/>
<path d="M0.407133 12.8916C0.856168 12.0079 2.39935 12.594 2.63863 11.5478C2.04029 11.4092 1.38615 11.4778 0.884609 11.9492C1.39463 11.3769 1.99079 11.2899 2.60472 11.3401C1.89371 10.283 0.000759721 11.3226 0.407133 12.8916Z" fill="#6B9E4D"/>
<path d="M0.260254 10.0274C1.25267 9.66311 1.91009 11.005 2.87707 10.3983C2.55383 9.94259 2.03588 9.60106 1.31803 9.6379C2.11765 9.53464 2.60989 9.82842 3.01161 10.2315C3.30723 9.04961 1.16215 8.66373 0.260527 10.0274H0.260254Z" fill="#94C957"/>
<path d="M27.1915 13.3038C26.2915 12.7615 25.3229 13.972 24.5055 13.192C24.9343 12.7998 25.5285 12.5543 26.2322 12.7232C25.4626 12.4724 24.9053 12.6731 24.4122 12.9998C24.3942 11.7735 26.6164 11.783 27.1915 13.3038Z" fill="#94C957"/>
<path d="M24.6699 18.469C25.0478 17.5506 23.4636 17.0079 24.1257 16.1011C24.6682 16.3762 25.0875 16.8348 25.0746 17.4905C25.1635 16.7555 24.8031 16.3204 24.316 15.9719C25.6724 15.6514 26.2125 17.5901 24.6699 18.4688V18.469Z" fill="#6B9E4D"/>
<path d="M27.1316 14.1937C27.0072 15.0278 25.5567 14.8841 25.6557 15.8083C26.192 15.7891 26.7165 15.5868 27.0012 15.0831C26.7397 15.6738 26.2688 15.8783 25.7432 15.9729C26.6336 16.6945 27.9132 15.4071 27.1319 14.194L27.1316 14.1937Z" fill="#94C957"/>
<path d="M22.3562 20.352C21.6179 20.0274 22.1593 19.0111 21.2733 18.823C21.1412 19.2188 21.18 19.6583 21.5686 20.0061C21.0942 19.65 21.0373 19.2494 21.0964 18.8402C20.177 19.2855 21.0108 20.5796 22.356 20.352H22.3562Z" fill="#6B9E4D"/>
<path d="M27.6874 12.7162C27.3155 11.7948 25.7067 12.2745 25.562 11.2027C26.177 11.1074 26.8306 11.2223 27.2909 11.7328C26.8304 11.1205 26.2383 10.9894 25.6137 10.9964C26.4262 9.98294 28.2384 11.1665 27.6874 12.7162Z" fill="#6B9E4D"/>
<path d="M16.9066 14.655C17.3723 14.0514 16.3388 13.4004 17.0064 12.8528C17.3414 13.1393 17.5498 13.5392 17.4037 14.0117C17.62 13.4961 17.4491 13.1204 17.1702 12.7898C18.2189 12.7808 18.2064 14.2703 16.9066 14.655Z" fill="#94C957"/>
<path d="M8.7259 2.99964C8.8867 2.2824 10.1348 2.48043 10.1091 1.67399C9.64257 1.66309 9.17384 1.81143 8.89655 2.23513C9.16044 1.73702 9.58213 1.58358 10.0443 1.5271C9.31796 0.856647 8.12591 1.90766 8.7259 2.99988V2.99964Z" fill="#94C957"/>
<path d="M3.55545 5.05471C4.20111 4.35493 5.43472 5.21348 5.93408 4.32075C5.43226 4.06915 4.82461 3.98892 4.2424 4.30815C4.8577 3.89875 5.41968 3.94771 5.9606 4.12538C5.60837 3.01959 3.61917 3.55407 3.55518 5.05447L3.55545 5.05471Z" fill="#94C957"/>
<path d="M13.3062 1.37389C12.4019 1.09829 11.8982 2.32141 11.0023 1.8308C11.2621 1.4105 11.7023 1.08084 12.3428 1.08011C11.6252 1.02436 11.2052 1.30893 10.8735 1.68707C10.5385 0.653019 12.4202 0.205562 13.3062 1.37414V1.37389Z" fill="#6B9E4D"/>
<path d="M18.3762 1.368C17.6346 1.47635 17.4232 0.469451 16.6556 0.746748C16.7958 1.10282 17.0887 1.41042 17.5859 1.48435C17.0206 1.44508 16.736 1.17554 16.535 0.845159C16.1226 1.60772 17.5175 2.1708 18.3762 1.368Z" fill="#94C957"/>
<path d="M23.703 4.69214C23.2304 3.77008 21.615 4.38649 21.3643 3.28918C21.9897 3.14568 22.675 3.21549 23.2014 3.70803C22.6662 3.10666 22.0425 3.01818 21.3987 3.07199C22.139 1.96402 24.1244 3.05091 23.703 4.69214Z" fill="#94C957"/>
<path d="M8.12752 1.61713C7.31532 2.61166 9.01602 3.75017 7.86691 4.64048C7.31997 4.14406 6.99126 3.46343 7.26036 2.67662C6.86957 3.53517 7.13757 4.17 7.58715 4.73938C5.8293 4.71223 5.92556 2.21171 8.12752 1.61713Z" fill="#6B9E4D"/>
<path d="M17.9818 22.2349C17.6334 21.3172 16.0325 21.7654 15.9116 20.7032C16.5215 20.6184 17.1649 20.7427 17.6112 21.2566C17.1682 20.6416 16.5846 20.5032 15.9674 20.4998C16.793 19.5085 18.5607 20.7105 17.9818 22.2349Z" fill="#6B9E4D"/>
<path d="M10.5811 22.2349C10.9295 21.3172 12.5306 21.7654 12.6518 20.7032C12.0411 20.6184 11.3979 20.7427 10.9508 21.2566C11.3955 20.6416 11.978 20.5032 12.5949 20.4998C11.7696 19.5085 10.0027 20.7105 10.5808 22.2349H10.5811Z" fill="#94C957"/>
<path d="M10.7502 18.0559C9.97684 17.2155 8.49546 18.244 7.89793 17.1724C8.5012 16.872 9.22972 16.7756 9.92734 17.1578C9.18843 16.6679 8.51597 16.7271 7.86621 16.9387C8.29009 15.6128 10.6805 16.2544 10.7502 18.0561V18.0559Z" fill="#94C957"/>
<path d="M15.1617 16.4797C14.778 17.3336 13.2865 16.8374 13.1123 17.838C13.6852 17.9447 14.3019 17.8562 14.7548 17.3899C14.2986 17.9522 13.7396 18.0581 13.1547 18.0332C13.878 19.0073 15.6219 17.95 15.1617 16.4794V16.4797Z" fill="#94C957"/>
<path d="M13.1618 16.5315C12.3181 16.4591 12.4196 15.3084 11.4934 15.4136C11.5278 15.8373 11.7466 16.2458 12.2632 16.4542C11.661 16.2654 11.4409 15.8986 11.329 15.4868C10.6311 16.213 11.9635 17.1867 13.1618 16.5315Z" fill="#94C957"/>
<path d="M23.063 12.5623C21.065 12.8033 21.4197 15.5331 19.2073 15.3547C19.2483 14.3456 19.7253 13.3559 20.934 12.8168C19.5204 13.3149 19.0323 14.2002 18.8094 15.1918C17.0732 13.5234 20.1475 11.1009 23.063 12.5623Z" fill="#94C957"/>
<path d="M23.4288 12.8489C23.6615 11.7478 21.7592 11.3968 22.3152 10.2634C22.9857 10.4856 23.5567 10.9338 23.6803 11.6753C23.6251 10.8315 23.1236 10.4001 22.5031 10.0871C23.9683 9.502 24.9862 11.6016 23.4288 12.8489Z" fill="#6B9E4D"/>
<path d="M15.9082 16.4842C16.6723 16.2096 16.2186 15.16 17.1167 15.0313C17.2157 15.4344 17.1402 15.8702 16.7226 16.1924C17.225 15.8678 17.3171 15.4715 17.2917 15.0599C18.1709 15.5658 17.2296 16.8008 15.9082 16.4842Z" fill="#6B9E4D"/>
<path d="M15.2826 9.39316C13.7061 11.5655 17.4239 13.7817 15.1265 15.7693C13.9148 14.783 13.1348 13.3885 13.5997 11.7046C12.8906 13.5509 13.533 14.8562 14.5519 16.0039C10.8522 16.1273 10.7351 10.8616 15.2829 9.39316H15.2826Z" fill="#6B9E4D"/>
<path fill-rule="evenodd" clip-rule="evenodd" d="M5.12402 27.7609C7.96617 27.1944 10.9494 26.8919 14.0251 26.8919C17.1011 26.8919 20.0841 27.1944 22.9271 27.7609H5.12402Z" fill="white"/>
</svg>
